<?xml version="1.0" encoding="UTF-8"?>
<svg width="20px" height="18px" viewBox="0 0 20 18" version="1.1" xmlns="http://www.w3.org/2000/svg" xmlns:xlink="http://www.w3.org/1999/xlink">
    <!-- Generator: Sketch 52.5 (67469) - http://www.bohemiancoding.com/sketch -->
    <title>ic/camera_alt</title>
    <desc>Created with Sketch.</desc>
    <defs>
        <circle id="path-1" cx="12" cy="12" r="3.2"></circle>
        <path d="M9,2 L7.17,4 L4,4 C2.9,4 2,4.9 2,6 L2,18 C2,19.1 2.9,20 4,20 L20,20 C21.1,20 22,19.1 22,18 L22,6 C22,4.9 21.1,4 20,4 L16.83,4 L15,2 L9,2 Z M12,17 C9.24,17 7,14.76 7,12 C7,9.24 9.24,7 12,7 C14.76,7 17,9.24 17,12 C17,14.76 14.76,17 12,17 Z" id="path-3"></path>
    </defs>
    <g id="Operations" stroke="none" stroke-width="1" fill="none" fill-rule="evenodd">
        <g id="01.00.02.-Operations-Inspections-Create-Inspections-2" transform="translate(-1308.000000, -613.000000)">
            <g id="Formulary" transform="translate(520.000000, 275.000000)">
                <g id="Group" transform="translate(0.000000, 58.000000)">
                    <g id="Card" transform="translate(0.000000, 184.000000)">
                        <g id="ic/camera_alt" transform="translate(786.000000, 94.000000)">
                            <g id="ic_camera_alt_24px">
                                <mask id="mask-2" fill="white">
                                    <use xlink:href="#path-1"></use>
                                </mask>
                                <g id="Oval" fill-rule="nonzero"></g>
                                <mask id="mask-4" fill="white">
                                    <use xlink:href="#path-3"></use>
                                </mask>
                                <g id="Shape" fill-rule="nonzero"></g>
                                <g id="c/#8C9EA7/1" mask="url(#mask-4)" fill="#8C9EA7">
                                    <rect id="Rectangle" x="0" y="0" width="24" height="24"></rect>
                                </g>
                            </g>
                        </g>
                    </g>
                </g>
            </g>
        </g>
    </g>
</svg>