<?xml version="1.0" encoding="UTF-8"?>
<svg width="30px" height="16px" viewBox="5 0 20 16" version="1.1" xmlns="http://www.w3.org/2000/svg" xmlns:xlink="http://www.w3.org/1999/xlink">
    <!-- Generator: Sketch 53.2 (72643) - https://sketchapp.com -->
    <title>ic/folder_open</title>
    <desc>Created with Sketch.</desc>
    <defs>
        <path d="M20,6 L12,6 L10,4 L4,4 C2.9,4 2.01,4.9 2.01,6 L2,18 C2,19.1 2.9,20 4,20 L20,20 C21.1,20 22,19.1 22,18 L22,8 C22,6.9 21.1,6 20,6 Z M20,18 L4,18 L4,8 L20,8 L20,18 Z" id="path-1"></path>
    </defs>
    <g id="Home" stroke="none" stroke-width="1" fill="none" fill-rule="evenodd">
        <g id="00.05.01.01.01.Home-ToDo-Mytasks-Calendar-Task" transform="translate(-278.000000, -363.000000)">
            <g id="PopUp" transform="translate(249.000000, 112.000000)">
                <g id="Task-Details" transform="translate(27.000000, 77.000000)">
                    <g id="ic/folder_open" transform="translate(0.000000, 170.000000)">
                        <g id="ic_folder_open_24px">
                            <mask id="mask-2" fill="white">
                                <use xlink:href="#path-1"></use>
                            </mask>
                            <g id="Shape" fill-rule="nonzero"></g>
                            <g id="c/#E6EAEE/1" mask="url(#mask-2)" fill="#E6EAEE">
                                <rect id="Rectangle" x="0" y="0" width="24" height="24"></rect>
                            </g>
                        </g>
                    </g>
                </g>
            </g>
        </g>
    </g>
</svg>