<?xml version="1.0" encoding="UTF-8"?>
<svg width="20px" height="16px" viewBox="0 0 20 16" version="1.1" xmlns="http://www.w3.org/2000/svg" xmlns:xlink="http://www.w3.org/1999/xlink">
    <!-- Generator: Sketch 52.2 (67145) - http://www.bohemiancoding.com/sketch -->
    <title>ic_print_24px</title>
    <desc>Created with Sketch.</desc>
    <defs>
        <path d="M0,0 L20,0 L20,4 L0,4 L0,0 Z M0,6 L20,6 L20,10 L0,10 L0,6 Z M0,12 L20,12 L20,16 L0,16 L0,12 Z" id="path-1"></path>
    </defs>
    <g id="Symbols" stroke="none" stroke-width="1" fill="none" fill-rule="evenodd">
        <g id="ic/Icon-2" transform="translate(-2.000000, -4.000000)">
            <g id="ic_print_24px" transform="translate(2.000000, 4.000000)">
                <mask id="mask-2" fill="white">
                    <use xlink:href="#path-1"></use>
                </mask>
                <path stroke="#979797" d="M0.5,0.5 L0.5,3.5 L19.5,3.5 L19.5,0.5 L0.5,0.5 Z M0.5,6.5 L0.5,9.5 L19.5,9.5 L19.5,6.5 L0.5,6.5 Z M0.5,12.5 L0.5,15.5 L19.5,15.5 L19.5,12.5 L0.5,12.5 Z"></path>
                <g id="c/#000000/1" mask="url(#mask-2)" fill="#8C9EA7">
                    <g transform="translate(-2.000000, -4.000000)" id="Rectangle">
                        <rect x="0" y="0" width="24" height="24"></rect>
                    </g>
                </g>
            </g>
        </g>
    </g>
</svg>