<?xml version="1.0" encoding="UTF-8"?>
<svg width="16px" height="22px" viewBox="0 0 16 22" version="1.1" xmlns="http://www.w3.org/2000/svg" xmlns:xlink="http://www.w3.org/1999/xlink">
    <!-- Generator: Sketch 52.2 (67145) - http://www.bohemiancoding.com/sketch -->
    <title>ic_ios_share_24px</title>
    <desc>Created with Sketch.</desc>
    <defs>
        <path d="M16,5 L14.58,6.42 L12.99,4.83 L12.99,16 L11.01,16 L11.01,4.83 L9.42,6.42 L8,5 L12,1 L16,5 Z M20,10 L20,21 C20,22.1 19.1,23 18,23 L6,23 C4.89,23 4,22.1 4,21 L4,10 C4,8.89 4.89,8 6,8 L9,8 L9,10 L6,10 L6,21 L18,21 L18,10 L15,10 L15,8 L18,8 C19.1,8 20,8.89 20,10 Z" id="path-1"></path>
    </defs>
    <g id="Symbols" stroke="none" stroke-width="1" fill="none" fill-rule="evenodd">
        <g id="ic/ios_share" transform="translate(-4.000000, -1.000000)">
            <g id="ic_ios_share_24px">
                <mask id="mask-2" fill="white">
                    <use xlink:href="#path-1"></use>
                </mask>
                <g id="Shape" fill-rule="nonzero"></g>
                <g id="c/#000000/1" mask="url(#mask-2)" fill="#000000">
                    <rect id="Rectangle" x="0" y="0" width="24" height="24"></rect>
                </g>
            </g>
        </g>
    </g>
</svg>