<?xml version="1.0" encoding="UTF-8"?>
<svg width="20px" height="20px" viewBox="0 0 20 20" version="1.1" xmlns="http://www.w3.org/2000/svg" xmlns:xlink="http://www.w3.org/1999/xlink">
    <!-- Generator: Sketch 52.2 (67145) - http://www.bohemiancoding.com/sketch -->
    <title>ic/account_child_invert</title>
    <desc>Created with Sketch.</desc>
    <defs>
        <circle id="path-1" cx="2" cy="2" r="2"></circle>
        <path d="M2,-2 C-1.08,-2 -4.5,-0.44 -4.5,1.61 L-4.5,7.38 C-4.5,8.54 -3.41,9.54 -1.9,10.2 C-0.74,10.7 0.66,11 2,11 C2.33,11 2.67,10.97 3,10.93 L3,8.33 C2.67,8.37 2.33,8.4 2,8.4 C0.68,8.4 -0.69,8.11 -1.84,7.63 C-1.51,6.57 0.33,5.8 2,5.8 C2.43,5.8 2.87,5.85 3.3,5.95 C4.69,6.26 5.9,7.03 5.9,7.97 L5.9,10.2 C7.41,9.55 8.5,8.54 8.5,7.38 L8.5,1.61 C8.5,-0.44 5.08,-2 2,-2 Z M2,4 C0.9,4 0,3.1 0,2 C0,0.9 0.9,0 2,0 C3.1,0 4,0.9 4,2 C4,3.1 3.1,4 2,4 Z" id="path-3"></path>
        <path d="M12,2 C13.65,2 15,3.35 15,5 C15,6.65 13.65,8 12,8 C10.35,8 9,6.65 9,5 C9,3.35 10.35,2 12,2 Z" id="path-5"></path>
    </defs>
    <g id="Home" stroke="none" stroke-width="1" fill="none" fill-rule="evenodd">
        <g id="Navigation" transform="translate(-1032.000000, -67.000000)">
            <g id="Group-9" transform="translate(0.000000, -2.000000)">
                <g id="Group-5" transform="translate(1027.000000, 65.000000)">
                    <g id="ic/account_child_invert" transform="translate(0.000000, 2.000000)">
                        <g id="ic_account_child_invert_24px" stroke-width="1" fill-rule="evenodd" transform="translate(10.000000, 11.000000)">
                            <mask id="mask-2" fill="white">
                                <use xlink:href="#path-1"></use>
                            </mask>
                            <g id="Oval"></g>
                            <mask id="mask-4" fill="white">
                                <use xlink:href="#path-3"></use>
                            </mask>
                            <g id="Shape" fill-rule="nonzero"></g>
                            <g id="c/#242E42/1" mask="url(#mask-4)" fill="#242E42">
                                <g transform="translate(-10.000000, -11.000000)" id="Rectangle">
                                    <rect x="0" y="0" width="24" height="24"></rect>
                                </g>
                            </g>
                        </g>
                        <mask id="mask-6" fill="white">
                            <use xlink:href="#path-5"></use>
                        </mask>
                        <g id="Shape" fill-rule="nonzero"></g>
                        <g id="c/#242E42/1" mask="url(#mask-6)" fill="#242E42" fill-rule="evenodd">
                            <rect id="Rectangle" x="0" y="0" width="24" height="24"></rect>
                        </g>
                    </g>
                </g>
            </g>
        </g>
    </g>
</svg>