<?xml version="1.0" encoding="UTF-8"?>
<svg width="20px" height="20px" viewBox="0 0 20 20" version="1.1" xmlns="http://www.w3.org/2000/svg" xmlns:xlink="http://www.w3.org/1999/xlink">
    <!-- Generator: Sketch 52.2 (67145) - http://www.bohemiancoding.com/sketch -->
    <title>ic/assignment_ind</title>
    <desc>Created with Sketch.</desc>
    <defs>
        <path d="M19,3 L14.82,3 C14.4,1.84 13.3,1 12,1 C10.7,1 9.6,1.84 9.18,3 L5,3 C3.9,3 3,3.9 3,5 L3,19 C3,20.1 3.9,21 5,21 L19,21 C20.1,21 21,20.1 21,19 L21,5 C21,3.9 20.1,3 19,3 Z M12,3 C12.55,3 13,3.45 13,4 C13,4.55 12.55,5 12,5 C11.45,5 11,4.55 11,4 C11,3.45 11.45,3 12,3 Z M12,7 C13.66,7 15,8.34 15,10 C15,11.66 13.66,13 12,13 C10.34,13 9,11.66 9,10 C9,8.34 10.34,7 12,7 Z M18,19 L6,19 L6,17.6 C6,15.6 10,14.5 12,14.5 C14,14.5 18,15.6 18,17.6 L18,19 Z" id="path-1"></path>
    </defs>
    <g id="Home" stroke="none" stroke-width="1" fill="none" fill-rule="evenodd">
        <g id="Navigation" transform="translate(-210.000000, -66.000000)">
            <g id="Group-9" transform="translate(0.000000, -2.000000)">
                <g id="Group-2" transform="translate(207.000000, 65.000000)">
                    <g id="ic/assignment_ind" transform="translate(0.000000, 2.000000)">
                        <g id="ic_assignment_ind_24px">
                            <mask id="mask-2" fill="white">
                                <use xlink:href="#path-1"></use>
                            </mask>
                            <g id="Shape" fill-rule="nonzero"></g>
                            <g id="c/#242E42/1" mask="url(#mask-2)" fill="#242E42">
                                <rect id="Rectangle" x="0" y="0" width="24" height="24"></rect>
                            </g>
                        </g>
                    </g>
                </g>
            </g>
        </g>
    </g>
</svg>