<?xml version="1.0" encoding="UTF-8"?>
<svg width="23px" height="23px" viewBox="0 0 23 23" version="1.1" xmlns="http://www.w3.org/2000/svg" xmlns:xlink="http://www.w3.org/1999/xlink">
    <!-- Generator: Sketch 52.2 (67145) - http://www.bohemiancoding.com/sketch -->
    <title>ic_settings_double_24px</title>
    <desc>Created with Sketch.</desc>
    <defs>
        <path d="M12.7629167,8.19416667 C12.79125,7.9675 12.8125,7.74083333 12.8125,7.5 C12.8125,7.25916667 12.79125,7.0325 12.7629167,6.80583333 L14.2575,5.63708333 C14.3920833,5.53083333 14.4275,5.33958333 14.3425,5.18375 L12.9258333,2.73291667 C12.8408333,2.57708333 12.6495833,2.52041667 12.49375,2.57708333 L10.73,3.28541667 C10.3616667,3.00208333 9.965,2.76833333 9.53291667,2.59125 L9.26375,0.714166667 C9.2425,0.544166667 9.09375,0.416666667 8.91666667,0.416666667 L6.08333333,0.416666667 C5.90625,0.416666667 5.7575,0.544166667 5.73625,0.714166667 L5.46708333,2.59125 C5.035,2.76833333 4.63833333,3.00916667 4.27,3.28541667 L2.50625,2.57708333 C2.34333333,2.51333333 2.15916667,2.57708333 2.07416667,2.73291667 L0.6575,5.18375 C0.565416667,5.33958333 0.607916667,5.53083333 0.7425,5.63708333 L2.23708333,6.80583333 C2.20875,7.0325 2.1875,7.26625 2.1875,7.5 C2.1875,7.73375 2.20875,7.9675 2.23708333,8.19416667 L0.7425,9.36291667 C0.607916667,9.46916667 0.5725,9.66041667 0.6575,9.81625 L2.07416667,12.2670833 C2.15916667,12.4229167 2.35041667,12.4795833 2.50625,12.4229167 L4.27,11.7145833 C4.63833333,11.9979167 5.035,12.2316667 5.46708333,12.40875 L5.73625,14.2858333 C5.7575,14.4558333 5.90625,14.5833333 6.08333333,14.5833333 L8.91666667,14.5833333 C9.09375,14.5833333 9.2425,14.4558333 9.26375,14.2858333 L9.53291667,12.40875 C9.965,12.2316667 10.3616667,11.9908333 10.73,11.7145833 L12.49375,12.4229167 C12.6566667,12.4866667 12.8408333,12.4229167 12.9258333,12.2670833 L14.3425,9.81625 C14.4275,9.66041667 14.3920833,9.46916667 14.2575,9.36291667 L12.7629167,8.19416667 Z M7.5,9.97916667 C6.13291667,9.97916667 5.02083333,8.86708333 5.02083333,7.5 C5.02083333,6.13291667 6.13291667,5.02083333 7.5,5.02083333 C8.86708333,5.02083333 9.97916667,6.13291667 9.97916667,7.5 C9.97916667,8.86708333 8.86708333,9.97916667 7.5,9.97916667 Z" id="path-1"></path>
        <path d="M9.70238838,6.039 C9.72500555,5.863 9.74196843,5.687 9.74196843,5.5 C9.74196843,5.313 9.72500555,5.137 9.70238838,4.961 L10.8954441,4.0535 C11.0028757,3.971 11.0311472,3.8225 10.9632957,3.7015 L9.83243712,1.7985 C9.7645856,1.6775 9.6119197,1.6335 9.48752526,1.6775 L8.07960637,2.2275 C7.78558315,2.0075 7.46894276,1.826 7.1240309,1.6885 L6.90916778,0.231 C6.8922049,0.099 6.77346475,0 6.63210743,0 L4.37039034,0 C4.22903303,0 4.11029288,0.099 4.09333,0.231 L3.87846688,1.6885 C3.53355502,1.826 3.21691463,2.013 2.92289141,2.2275 L1.51497252,1.6775 C1.38492379,1.628 1.23791218,1.6775 1.17006066,1.7985 L0.0392021184,3.7015 C-0.034303687,3.8225 -0.000377930703,3.971 0.107053631,4.0535 L1.3001094,4.961 C1.27749222,5.137 1.26052935,5.3185 1.26052935,5.5 C1.26052935,5.6815 1.27749222,5.863 1.3001094,6.039 L0.107053631,6.9465 C-0.000377930703,7.029 -0.0286493943,7.1775 0.0392021184,7.2985 L1.17006066,9.2015 C1.23791218,9.3225 1.39057808,9.3665 1.51497252,9.3225 L2.92289141,8.7725 C3.21691463,8.9925 3.53355502,9.174 3.87846688,9.3115 L4.09333,10.769 C4.11029288,10.901 4.22903303,11 4.37039034,11 L6.63210743,11 C6.77346475,11 6.8922049,10.901 6.90916778,10.769 L7.1240309,9.3115 C7.46894276,9.174 7.78558315,8.987 8.07960637,8.7725 L9.48752526,9.3225 C9.61757399,9.372 9.7645856,9.3225 9.83243712,9.2015 L10.9632957,7.2985 C11.0311472,7.1775 11.0028757,7.029 10.8954441,6.9465 L9.70238838,6.039 Z M5.50124889,7.425 C4.40997039,7.425 3.52224644,6.5615 3.52224644,5.5 C3.52224644,4.4385 4.40997039,3.575 5.50124889,3.575 C6.59252738,3.575 7.48025134,4.4385 7.48025134,5.5 C7.48025134,6.5615 6.59252738,7.425 5.50124889,7.425 Z" id="path-3"></path>
    </defs>
    <g id="Home" stroke="none" stroke-width="1" fill="none" fill-rule="evenodd">
        <g id="Navigation" transform="translate(-1258.000000, -63.000000)">
            <g id="Group-9" transform="translate(0.000000, -2.000000)">
                <g id="Group" transform="translate(1258.000000, 64.000000)">
                    <g id="ic/settings_double_24px" transform="translate(0.000000, 1.000000)">
                        <g id="ic_settings_24px">
                            <g>
                                <mask id="mask-2" fill="white">
                                    <use xlink:href="#path-1"></use>
                                </mask>
                                <g id="Shape" fill-rule="nonzero"></g>
                                <g id="c/#242E42/1" mask="url(#mask-2)" fill="#242E42">
                                    <g transform="translate(-1.000000, -1.000000)" id="Rectangle">
                                        <rect x="0" y="0" width="17" height="17"></rect>
                                    </g>
                                </g>
                            </g>
                            <g transform="translate(10.000000, 12.000000)">
                                <mask id="mask-4" fill="white">
                                    <use xlink:href="#path-3"></use>
                                </mask>
                                <g id="Shape" fill-rule="nonzero"></g>
                                <g id="c/#242E42/1" mask="url(#mask-4)" fill="#242E42">
                                    <g transform="translate(-1.000000, -1.000000)" id="Rectangle">
                                        <rect x="0" y="0" width="14" height="14"></rect>
                                    </g>
                                </g>
                            </g>
                        </g>
                    </g>
                </g>
            </g>
        </g>
    </g>
</svg>